<svg width="780" height="1040" viewBox="0 0 780 1040" fill="none" xmlns="http://www.w3.org/2000/svg">
  <defs>
    <linearGradient id="emberBg" x1="68" y1="66" x2="690" y2="968" gradientUnits="userSpaceOnUse">
      <stop stop-color="#150F12"/>
      <stop offset="0.44" stop-color="#2A1516"/>
      <stop offset="1" stop-color="#0D1016"/>
    </linearGradient>
    <radialGradient id="emberGlow" cx="0" cy="0" r="1" gradientUnits="userSpaceOnUse" gradientTransform="translate(392 328) rotate(90) scale(248)">
      <stop stop-color="#FF9B6D" stop-opacity="0.74"/>
      <stop offset="1" stop-color="#FF9B6D" stop-opacity="0"/>
    </radialGradient>
    <linearGradient id="spotA" x1="208" y1="142" x2="332" y2="660" gradientUnits="userSpaceOnUse">
      <stop stop-color="#FFD18C" stop-opacity="0.62"/>
      <stop offset="1" stop-color="#FFD18C" stop-opacity="0"/>
    </linearGradient>
    <linearGradient id="spotB" x1="572" y1="128" x2="446" y2="670" gradientUnits="userSpaceOnUse">
      <stop stop-color="#FF6C4F" stop-opacity="0.72"/>
      <stop offset="1" stop-color="#FF6C4F" stop-opacity="0"/>
    </linearGradient>
  </defs>

  <rect width="780" height="1040" rx="42" fill="url(#emberBg)"/>
  <circle cx="392" cy="328" r="248" fill="url(#emberGlow)"/>
  <rect x="46" y="46" width="688" height="948" rx="28" stroke="#473032" stroke-width="2"/>

  <path d="M206 132L348 666H234L104 132H206Z" fill="url(#spotA)"/>
  <path d="M570 132L430 666H544L680 132H570Z" fill="url(#spotB)"/>

  <path d="M390 202C324 202 270 260 270 332V646H510V332C510 260 456 202 390 202Z" stroke="#F8EAD8" stroke-opacity="0.16" stroke-width="8"/>
  <path d="M390 268C356 268 328 296 328 330V646H452V330C452 296 424 268 390 268Z" stroke="#F8EAD8" stroke-opacity="0.22" stroke-width="6"/>
  <path d="M390 334C378 334 370 342 370 354V646H410V354C410 342 402 334 390 334Z" fill="#F8EAD8" fill-opacity="0.12"/>

  <g fill="#0B1014">
    <path d="M314 788C314 704 350 636 390 636C430 636 466 704 466 788H314Z"/>
    <circle cx="390" cy="598" r="28"/>
    <path d="M234 814C234 755 261 708 294 708C329 708 356 755 358 814H234Z"/>
    <circle cx="295" cy="680" r="24"/>
    <path d="M422 814C424 755 451 708 486 708C519 708 546 755 546 814H422Z"/>
    <circle cx="485" cy="680" r="24"/>
  </g>

  <path d="M104 870C208 836 296 818 390 818C484 818 572 836 676 870" stroke="#F8EAD8" stroke-opacity="0.18" stroke-width="2" stroke-linecap="round"/>
  <path d="M158 928C238 906 316 894 390 894C464 894 542 906 622 928" stroke="#F8EAD8" stroke-opacity="0.12" stroke-width="2" stroke-linecap="round"/>

  <text x="84" y="112" fill="#F8EAD8" font-family="Arial, sans-serif" font-size="18" letter-spacing="8">AFTER HOURS SERIES</text>
  <text x="84" y="902" fill="#F8EAD8" font-family="Arial, sans-serif" font-size="74" font-weight="700">AFTERGLOW</text>
  <text x="84" y="974" fill="#F8EAD8" font-family="Arial, sans-serif" font-size="74" font-weight="700">ROOM</text>
  <text x="84" y="1012" fill="#BBAAA0" font-family="Arial, sans-serif" font-size="18" letter-spacing="5">WARM SPOTLIGHTS / PRIVATE ENERGY / LATE SESSION</text>
</svg>
